<svg id="visual" viewBox="0 0 900 600" width="900" height="600" xmlns="http://www.w3.org/2000/svg"
  xmlns:xlink="http://www.w3.org/1999/xlink" version="1.1">
  <path
    d="M0 330L25 322.8C50 315.7 100 301.3 150 305.5C200 309.7 250 332.3 300 343.7C350 355 400 355 450 351C500 347 550 339 600 333.3C650 327.7 700 324.3 750 331.2C800 338 850 355 875 363.5L900 372L900 601L875 601C850 601 800 601 750 601C700 601 650 601 600 601C550 601 500 601 450 601C400 601 350 601 300 601C250 601 200 601 150 601C100 601 50 601 25 601L0 601Z"
    fill="#57d130"></path>
  <path
    d="M0 376L25 371.5C50 367 100 358 150 354.2C200 350.3 250 351.7 300 361.2C350 370.7 400 388.3 450 396.3C500 404.3 550 402.7 600 391.5C650 380.3 700 359.7 750 348.2C800 336.7 850 334.3 875 333.2L900 332L900 601L875 601C850 601 800 601 750 601C700 601 650 601 600 601C550 601 500 601 450 601C400 601 350 601 300 601C250 601 200 601 150 601C100 601 50 601 25 601L0 601Z"
    fill="#46BE37"></path>
  <path
    d="M0 389L25 389.8C50 390.7 100 392.3 150 398.5C200 404.7 250 415.3 300 423C350 430.7 400 435.3 450 436.3C500 437.3 550 434.7 600 429.7C650 424.7 700 417.3 750 420.3C800 423.3 850 436.7 875 443.3L900 450L900 601L875 601C850 601 800 601 750 601C700 601 650 601 600 601C550 601 500 601 450 601C400 601 350 601 300 601C250 601 200 601 150 601C100 601 50 601 25 601L0 601Z"
    fill="#38AC3B"></path>
  <path
    d="M0 454L25 455.7C50 457.3 100 460.7 150 461.3C200 462 250 460 300 454.3C350 448.7 400 439.3 450 444.2C500 449 550 468 600 473C650 478 700 469 750 467.8C800 466.7 850 473.3 875 476.7L900 480L900 601L875 601C850 601 800 601 750 601C700 601 650 601 600 601C550 601 500 601 450 601C400 601 350 601 300 601C250 601 200 601 150 601C100 601 50 601 25 601L0 601Z"
    fill="#33A53C"></path>
  <path
    d="M0 475L25 484.3C50 493.7 100 512.3 150 515C200 517.7 250 504.3 300 502.3C350 500.3 400 509.7 450 512.7C500 515.7 550 512.3 600 507.8C650 503.3 700 497.7 750 495C800 492.3 850 492.7 875 492.8L900 493L900 601L875 601C850 601 800 601 750 601C700 601 650 601 600 601C550 601 500 601 450 601C400 601 350 601 300 601C250 601 200 601 150 601C100 601 50 601 25 601L0 601Z"
    fill="#2A963C"></path>
  <path
    d="M0 565L25 561.7C50 558.3 100 551.7 150 549.2C200 546.7 250 548.3 300 545.2C350 542 400 534 450 536.7C500 539.3 550 552.7 600 556.8C650 561 700 556 750 548.7C800 541.3 850 531.7 875 526.8L900 522L900 601L875 601C850 601 800 601 750 601C700 601 650 601 600 601C550 601 500 601 450 601C400 601 350 601 300 601C250 601 200 601 150 601C100 601 50 601 25 601L0 601Z"
    fill="#23873c"></path>
</svg>